# xmcd CD database file
# Copyright (C) 1993-1998 Ti Kan
# 
# Track frame offsets:
#     150
#     19505
#     34535
#     51345
#     70115
#     90335
#     111990
#     126765
#     146720
#     163557
#     182677
# 
# Disc length: 2772 seconds
# 
# Revision: 1
# Processed by: cddbd v1.4b41PL1 Copyright (c) Steve Scherf et al.
# Submitted via: DiscPlay 4.0.4
# 
DISCID=8c0ad20b
DTITLE=Pacey,Shane  and the Cigars - Got The News
DYEAR=1900
DGENRE=
TTITLE0=Let Me Get My Foot in the Door
TTITLE1=Sentimental On Me
TTITLE2=Nobody Sees Me
TTITLE3=Always a First Time
TTITLE4=Got the News
TTITLE5=Gravy Train
TTITLE6=Long Line of Fools
TTITLE7=Key To Your Heart
TTITLE8=Cut Me Some Slack
TTITLE9=Alberts Alley
TTITLE10=The Last Man in Town
EXTD=
EXTT0=
EXTT1=
EXTT2=
EXTT3=
EXTT4=
EXTT5=
EXTT6=
EXTT7=
EXTT8=
EXTT9=
EXTT10=
PLAYORDER=
